<svg version="1.1" id="Layer_1" xmlns="http://www.w3.org/2000/svg" xmlns:xlink="http://www.w3.org/1999/xlink" x="0px" y="0px"
	 width="100%" viewBox="0 0 297 282" enable-background="new 0 0 297 282" xml:space="preserve">
<path fill="none" opacity="1.000000" stroke="#000000" stroke-linecap="round" stroke-linejoin="round" stroke-width="5.000000"
	d="
M87.000000,87.500000 
	C85.661095,89.332405 86.007271,91.452118 86.006096,93.500000 
	C85.995613,111.666664 86.264061,129.838562 85.904381,147.998108 
	C85.676041,159.526550 88.453133,170.072556 94.013367,179.992508 
	C104.315720,198.372833 118.450592,213.046432 136.466797,224.054352 
	C142.013870,227.443619 146.902267,227.506332 152.550873,224.083954 
	C167.874130,214.799881 180.722610,202.826218 190.291046,187.866348 
	C195.714340,179.387238 201.367523,170.561768 202.498367,159.999832 
	C202.676666,158.334396 202.975769,156.666901 202.978378,154.999969 
	C203.011322,134.000015 203.002457,113.000000 202.995667,92.000000 
	C202.995071,90.192863 203.321671,88.311745 201.938843,86.678421 
	C188.802155,88.142235 175.591827,89.448135 162.508759,85.967094 
	C158.286255,84.843597 153.998566,83.701584 150.046738,81.897606 
	C146.002411,80.051399 142.400970,80.290840 138.486084,81.967506 
	C130.040237,85.584671 121.314102,87.913025 112.001122,88.067429 
	C103.630798,88.206192 95.328751,87.447937 87.000000,87.000000 
"/>
<path fill="none" opacity="1.000000" stroke="#000000" stroke-linecap="round" stroke-linejoin="round" stroke-width="4.000000"
	d="
M144.500000,78.500000 
	C144.500000,125.333336 144.510712,172.166672 144.478378,218.999985 
	C144.475967,222.500092 145.397141,226.000000 144.500000,229.500000 
"/>
<path fill="none" opacity="1.000000" stroke="#000000" stroke-linecap="round" stroke-linejoin="round" stroke-width="5.000000"
	d="
M136.500000,164.000000 
	C133.928177,163.145676 132.052719,162.111633 130.787628,159.088882 
	C129.112762,155.087021 125.925880,151.717987 123.277344,147.917007 
	C125.086739,146.559967 126.845100,145.342804 128.490112,143.987991 
	C133.083115,140.205307 132.488693,134.849411 131.825409,130.024002 
	C131.212265,125.563179 124.759888,121.166168 119.999054,121.033974 
	C114.669830,120.886009 109.332306,121.062607 104.000412,120.974770 
	C101.142311,120.927689 99.957802,122.143394 99.974052,125.000145 
	C100.037582,136.166458 100.112976,147.335052 99.942467,158.499115 
	C99.877434,162.757095 102.405899,163.006882 105.499992,163.009644 
	C108.558861,163.012375 110.624634,162.306381 110.555412,158.498993 
	C110.385796,149.168640 110.500000,139.833130 110.500000,130.814575 
	C113.121048,129.671906 115.578049,130.104324 117.999405,129.987656 
	C120.858948,129.849869 122.024292,131.144257 122.046188,133.999649 
	C122.068588,136.919373 121.092979,138.805496 117.998718,138.976929 
	C115.838684,139.096588 113.666664,139.000000 111.500000,139.000000 
"/>
<path fill="none" opacity="1.000000" stroke="#000000" stroke-linecap="round" stroke-linejoin="round" stroke-width="4.000000"
	d="
M156.500000,122.000000 
	C156.528397,126.287224 159.077499,129.715302 160.572968,133.470947 
	C163.664154,141.234039 167.353058,148.760437 170.396149,156.540619 
	C171.423447,159.167114 173.179443,161.159363 174.500000,163.500000 
"/>
<path fill="none" opacity="1.000000" stroke="#000000" stroke-linecap="round" stroke-linejoin="round" stroke-width="4.000000"
	d="
M174.500000,144.500000 
	C172.916672,138.151047 178.516251,134.047546 179.509933,128.501785 
	C179.601944,127.988403 179.785309,127.477516 180.007248,127.003387 
	C183.146393,120.296921 184.905380,119.596268 193.018326,122.164055 
	C188.498917,132.640198 184.085846,143.108780 179.444550,153.475174 
	C178.142395,156.383560 177.727814,159.816681 175.000000,162.000000 
"/>
<path fill="none" opacity="1.000000" stroke="#000000" stroke-linecap="round" stroke-linejoin="round" stroke-width="3.000000"
	d="
M172.500000,247.500000 
	C169.829208,248.376160 168.708527,250.074326 168.934998,253.005020 
	C169.160172,255.918686 171.150467,257.475311 173.064926,258.913574 
	C174.495132,259.988037 175.942154,258.289612 176.940338,257.430664 
	C179.236526,255.454758 177.785919,252.746033 177.358505,250.527252 
	C177.008545,248.710510 174.869064,247.946396 173.000000,247.500000 
"/>
<path fill="none" opacity="1.000000" stroke="#000000" stroke-linecap="round" stroke-linejoin="round" stroke-width="3.000000"
	d="
M139.000000,250.500000 
	C139.971588,253.116364 139.454086,255.835236 139.456100,258.500031 
	C139.458023,261.063690 140.554321,262.819183 143.003311,262.902649 
	C145.275345,262.980103 146.773987,261.075104 146.904480,258.994019 
	C147.080490,256.187256 147.476135,253.285721 146.500000,250.500000 
"/>
<path fill="none" opacity="1.000000" stroke="#000000" stroke-linecap="round" stroke-linejoin="round" stroke-width="3.000000"
	d="
M254.500015,137.000015 
	C253.666672,137.666672 252.609940,138.184387 252.045776,139.030533 
	C250.810867,140.882690 251.566803,142.964081 253.083176,143.859070 
	C254.400253,144.636414 256.340240,144.045578 257.009064,142.002960 
	C257.287781,141.151749 257.735565,140.353439 257.985779,139.495850 
	C258.521973,137.658249 260.043671,136.884918 261.442200,137.611282 
	C262.915070,138.376297 264.546570,140.029907 262.919556,141.931168 
	C262.182556,142.792404 262.382935,144.716278 260.500000,144.500000 
"/>
<path fill="none" opacity="1.000000" stroke="#000000" stroke-linecap="round" stroke-linejoin="round" stroke-width="5.000000"
	d="
M174.500000,138.000000 
	C170.649094,134.709137 169.423706,130.032211 168.029800,125.490852 
	C166.839340,121.612366 164.349091,120.509766 160.490433,120.907043 
	C158.559341,121.105865 156.328323,122.726875 154.500000,120.500000 
"/>
<path fill="none" opacity="1.000000" stroke="#000000" stroke-linecap="round" stroke-linejoin="round" stroke-width="3.000000"
	d="
M108.500000,246.500000 
	C107.000000,245.333344 105.623161,243.917328 103.954109,243.092911 
	C102.942726,242.593353 101.161461,242.686371 100.600273,244.041519 
	C100.287270,244.797363 99.986526,246.112274 100.990860,247.010223 
	C101.868050,247.794510 102.633270,248.703735 103.507751,249.491409 
	C104.856255,250.705978 104.993881,252.091019 103.980362,253.485733 
	C102.558090,255.442917 100.934639,254.306458 99.520943,253.464828 
	C98.416344,252.807190 97.500000,251.833344 96.500000,251.000000 
"/>
<path fill="none" opacity="1.000000" stroke="#000000" stroke-linecap="round" stroke-linejoin="round" stroke-width="3.000000"
	d="
M261.000000,122.500000 
	C259.745056,124.757256 257.560913,124.505241 255.500092,124.488914 
	C252.755280,124.467163 250.991806,125.422112 250.988937,128.499985 
	C250.985550,132.119980 253.447449,132.202927 255.997452,131.971893 
	C258.176422,131.774460 260.333344,131.333328 262.500000,131.000000 
"/>
<path fill="none" opacity="1.000000" stroke="#000000" stroke-linecap="round" stroke-linejoin="round" stroke-width="5.000000"
	d="
M112.000000,152.000000 
	C115.632828,152.367172 116.196114,155.872787 117.933121,158.053284 
	C122.233711,163.451904 124.175186,164.200394 131.000000,162.000000 
"/>
<path fill="none" opacity="1.000000" stroke="#000000" stroke-linecap="round" stroke-linejoin="round" stroke-width="3.000000"
	d="
M200.500000,238.500000 
	C199.166672,238.333328 197.837402,238.111206 196.499069,238.012756 
	C194.395920,237.858017 193.636444,239.423355 193.572632,241.002930 
	C193.484894,243.174576 195.209061,243.576584 196.998840,243.478760 
	C197.506439,243.451004 197.996872,243.035675 198.500565,243.023636 
	C200.287521,242.980865 202.193726,242.660614 203.022552,244.991974 
	C203.505096,246.349319 202.976410,247.378174 201.973770,247.954376 
	C200.307755,248.911774 198.390930,250.423981 197.000000,247.500000 
"/>
<path fill="none" opacity="1.000000" stroke="#000000" stroke-linecap="round" stroke-linejoin="round" stroke-width="3.000000"
	d="
M37.500000,121.000000 
	C39.027103,120.527100 39.722351,119.217667 40.496696,117.997902 
	C41.423107,116.538597 41.413925,115.136223 39.989262,114.013626 
	C38.715702,113.010086 37.539066,113.320648 36.492657,114.493446 
	C35.865993,115.195808 35.153019,115.820312 34.502426,116.502319 
	C32.061676,119.060852 32.065319,119.064331 28.990044,115.990044 
	C29.994364,113.994362 30.905704,111.905701 33.500000,111.500000 
"/>
<path fill="none" opacity="1.000000" stroke="#000000" stroke-linecap="round" stroke-linejoin="round" stroke-width="3.000000"
	d="
M99.000000,37.500000 
	C96.692024,33.970943 94.927155,36.959145 92.994415,37.822487 
	C93.209946,44.681469 101.444145,38.657883 102.498627,43.996773 
	C101.268555,47.571079 98.258293,46.991570 95.500000,47.000000 
"/>
<path fill="none" opacity="1.000000" stroke="#000000" stroke-linecap="round" stroke-linejoin="round" stroke-width="3.000000"
	d="
M128.500000,28.000000 
	C125.800026,25.700089 124.162109,27.648428 122.419785,29.349192 
	C122.975487,34.363503 129.801254,31.411272 130.545959,36.283092 
	C128.411392,39.418762 125.800407,38.919693 123.000000,37.000000 
"/>
<path fill="none" opacity="1.000000" stroke="#000000" stroke-linecap="round" stroke-linejoin="round" stroke-width="3.000000"
	d="
M64.500000,57.500000 
	C62.002365,58.076702 61.072323,60.395172 58.645199,62.098186 
	C61.807434,64.510994 64.547989,66.602058 67.288544,68.693123 
	C68.694420,69.226158 69.451820,67.104729 71.000000,66.000000 
"/>
<path fill="none" opacity="1.000000" stroke="#000000" stroke-linecap="round" stroke-linejoin="round" stroke-width="3.000000"
	d="
M97.000000,239.500000 
	C96.654434,242.108795 95.175941,244.141678 93.471062,245.973068 
	C92.224213,247.312424 90.717171,248.405731 92.000000,250.500000 
"/>
<path fill="none" opacity="1.000000" stroke="#000000" stroke-linecap="round" stroke-linejoin="round" stroke-width="3.000000"
	d="
M163.500015,250.500000 
	C164.000015,254.166672 164.500015,257.833344 165.000015,261.500000 
"/>
<path fill="none" opacity="1.000000" stroke="#000000" stroke-linecap="round" stroke-linejoin="round" stroke-width="3.000000"
	d="
M89.500000,235.500000 
	C90.570961,240.303635 85.208427,242.043701 84.500000,246.000000 
"/>
<path fill="none" opacity="1.000000" stroke="#000000" stroke-linecap="round" stroke-linejoin="round" stroke-width="3.000000"
	d="
M155.500000,252.000000 
	C154.363541,255.562057 156.173889,258.983795 156.000000,262.500000 
"/>
<path fill="none" opacity="1.000000" stroke="#000000" stroke-linecap="round" stroke-linejoin="round" stroke-width="3.000000"
	d="
M123.000008,250.000000 
	C122.333344,253.500000 121.666672,257.000000 121.000008,260.500000 
"/>
<path fill="none" opacity="1.000000" stroke="#000000" stroke-linecap="round" stroke-linejoin="round" stroke-width="3.000000"
	d="
M104.000000,32.500000 
	C104.472717,36.231316 106.206345,39.542328 107.500000,43.000000 
"/>
<path fill="none" opacity="1.000000" stroke="#000000" stroke-linecap="round" stroke-linejoin="round" stroke-width="3.000000"
	d="
M261.500000,153.000000 
	C258.166656,152.666672 254.833328,152.333328 251.500000,152.000000 
"/>
<path fill="none" opacity="1.000000" stroke="#000000" stroke-linecap="round" stroke-linejoin="round" stroke-width="3.000000"
	d="
M114.499992,248.500000 
	C113.666664,251.833328 112.833328,255.166672 111.999992,258.500000 
"/>
<path fill="none" opacity="1.000000" stroke="#000000" stroke-linecap="round" stroke-linejoin="round" stroke-width="3.000000"
	d="
M254.500000,102.499985 
	C251.166656,103.666656 247.833328,104.833321 244.500000,105.999985 
"/>
<path fill="none" opacity="1.000000" stroke="#000000" stroke-linecap="round" stroke-linejoin="round" stroke-width="3.000000"
	d="
M249.000000,90.000000 
	C246.055420,91.924034 242.171097,92.310280 240.000000,95.500000 
"/>
<path fill="none" opacity="1.000000" stroke="#000000" stroke-linecap="round" stroke-linejoin="round" stroke-width="3.000000"
	d="
M131.500000,252.000000 
	C130.734085,255.124680 129.836288,258.228546 130.000000,261.500000 
"/>
<path fill="none" opacity="1.000000" stroke="#000000" stroke-linecap="round" stroke-linejoin="round" stroke-width="3.000000"
	d="
M200.500000,42.500000 
	C200.289032,40.473972 199.480530,38.688629 197.476074,38.078609 
	C196.378189,37.744484 195.053513,37.711369 193.939743,38.945625 
	C192.814728,40.192352 194.018021,41.037994 194.117508,41.987690 
	C194.193817,42.716198 195.397232,43.281731 195.986206,44.011147 
	C197.086609,45.373962 198.644150,46.899292 196.467773,48.454903 
	C194.681458,49.731709 192.848648,49.313396 191.512100,47.491123 
	C190.939774,46.710831 190.499985,45.833340 189.999985,45.000004 
"/>
<path fill="none" opacity="1.000000" stroke="#000000" stroke-linecap="round" stroke-linejoin="round" stroke-width="3.000000"
	d="
M40.000000,90.500008 
	C43.166664,92.000008 46.333332,93.500008 49.500000,95.000000 
"/>
<path fill="none" opacity="1.000000" stroke="#000000" stroke-linecap="round" stroke-linejoin="round" stroke-width="3.000000"
	d="
M48.500000,79.500000 
	C51.618309,81.241783 54.761719,82.858063 58.500000,81.500000 
"/>
<path fill="none" opacity="1.000000" stroke="#000000" stroke-linecap="round" stroke-linejoin="round" stroke-width="3.000000"
	d="
M171.000000,28.500000 
	C170.130066,31.322567 170.936493,34.638184 168.500000,37.000000 
"/>
<path fill="none" opacity="1.000000" stroke="#000000" stroke-linecap="round" stroke-linejoin="round" stroke-width="3.000000"
	d="
M64.000000,73.000000 
	C62.443871,74.301964 62.149155,76.725174 59.947170,77.606117 
	C57.906330,77.202286 57.067524,75.470451 55.999817,73.999832 
	C55.879433,71.826241 58.810150,71.940948 59.000000,70.000000 
"/>
<path fill="none" opacity="1.000000" stroke="#000000" stroke-linecap="round" stroke-linejoin="round" stroke-width="2.000000"
	d="
M233.500015,65.499992 
	C235.333344,67.999992 237.166672,70.499992 239.000015,72.999992 
"/>
<path fill="none" opacity="1.000000" stroke="#000000" stroke-linecap="round" stroke-linejoin="round" stroke-width="3.000000"
	d="
M179.500000,245.000000 
	C180.836258,245.429825 182.615326,245.695114 182.439240,247.494049 
	C182.106155,250.897018 184.377625,253.441406 185.000000,256.500000 
"/>
<path fill="none" opacity="1.000000" stroke="#000000" stroke-linecap="round" stroke-linejoin="round" stroke-width="3.000000"
	d="
M85.000000,234.500000 
	C83.000000,237.333328 81.000000,240.166672 79.000000,243.000000 
"/>
<path fill="none" opacity="1.000000" stroke="#000000" stroke-linecap="round" stroke-linejoin="round" stroke-width="3.000000"
	d="
M163.000000,31.500000 
	C160.693222,33.263283 162.868546,37.267605 159.500000,38.500000 
"/>
<path fill="none" opacity="1.000000" stroke="#000000" stroke-linecap="round" stroke-linejoin="round" stroke-width="3.000000"
	d="
M37.500000,138.000000 
	C34.833332,139.166656 32.166664,140.333328 29.499998,141.500000 
"/>
<path fill="none" opacity="1.000000" stroke="#000000" stroke-linecap="round" stroke-linejoin="round" stroke-width="3.000000"
	d="
M235.000000,71.000000 
	C232.781952,73.290825 229.457764,74.390419 228.000000,77.500000 
"/>
<path fill="none" opacity="1.000000" stroke="#000000" stroke-linecap="round" stroke-linejoin="round" stroke-width="3.000000"
	d="
M39.500000,125.000000 
	C36.868858,125.578560 34.297607,126.254440 33.000000,129.000000 
"/>
<path fill="none" opacity="1.000000" stroke="#000000" stroke-linecap="round" stroke-linejoin="round" stroke-width="3.000000"
	d="
M188.500000,242.500000 
	C189.034943,244.993011 191.281235,247.143753 190.000000,250.000000 
"/>
<path fill="none" opacity="1.000000" stroke="#000000" stroke-linecap="round" stroke-linejoin="round" stroke-width="3.000000"
	d="
M73.000000,49.500000 
	C72.422951,52.049580 74.550941,54.418827 73.500000,57.000000 
"/>
<path fill="none" opacity="1.000000" stroke="#000000" stroke-linecap="round" stroke-linejoin="round" stroke-width="3.000000"
	d="
M79.500000,44.500000 
	C80.085548,47.914452 81.616524,50.215935 85.491920,50.584896 
	C87.206512,50.748135 88.833336,51.833332 90.500000,52.500000 
"/>
<path fill="none" opacity="1.000000" stroke="#000000" stroke-linecap="round" stroke-linejoin="round" stroke-width="3.000000"
	d="
M116.500000,28.500000 
	C115.666664,30.916666 114.833336,33.333332 114.000000,35.750000 
"/>
<path fill="none" opacity="1.000000" stroke="#000000" stroke-linecap="round" stroke-linejoin="round" stroke-width="3.000000"
	d="
M44.500000,81.500000 
	C45.499992,81.333290 46.499989,81.166588 47.895809,80.933899 
	C47.827267,84.516670 50.695496,86.036873 53.000000,88.000000 
"/>
<path fill="none" opacity="1.000000" stroke="#000000" stroke-linecap="round" stroke-linejoin="round" stroke-width="3.000000"
	d="
M257.000000,117.000000 
	C255.154602,113.434074 252.126297,112.740913 248.500000,113.500000 
"/>
<path fill="none" opacity="1.000000" stroke="#000000" stroke-linecap="round" stroke-linejoin="round" stroke-width="3.000000"
	d="
M210.500000,45.500000 
	C209.833328,45.500000 208.607010,45.386169 208.580521,45.516376 
	C207.431107,51.167629 201.897476,49.932011 198.500000,52.000000 
"/>
<path fill="none" opacity="1.000000" stroke="#000000" stroke-linecap="round" stroke-linejoin="round" stroke-width="4.000000"
	d="
M180.500000,32.500000 
	C179.189072,34.666668 179.036453,36.947475 180.545853,38.965710 
	C181.874451,40.742191 181.346329,42.634003 181.500000,44.500000 
"/>
<path fill="none" opacity="1.000000" stroke="#000000" stroke-linecap="round" stroke-linejoin="round" stroke-width="3.000000"
	d="
M206.000000,50.500000 
	C207.320801,52.692265 208.066208,54.966732 207.000000,57.500000 
"/>
<path fill="none" opacity="1.000000" stroke="#000000" stroke-linecap="round" stroke-linejoin="round" stroke-width="3.000000"
	d="
M230.500000,61.500000 
	C229.210800,65.724419 225.455383,67.756638 222.500000,70.500000 
"/>
<path fill="none" opacity="1.000000" stroke="#000000" stroke-linecap="round" stroke-linejoin="round" stroke-width="3.000000"
	d="
M223.000000,60.000000 
	C220.282150,58.705605 218.601761,62.252636 216.000000,61.500000 
"/>
<path fill="none" opacity="1.000000" stroke="#000000" stroke-linecap="round" stroke-linejoin="round" stroke-width="3.000000"
	d="
M225.500000,58.500000 
	C223.333328,61.500000 221.166672,64.500000 219.000000,67.500000 
"/>
<path fill="none" opacity="1.000000" stroke="#000000" stroke-linecap="round" stroke-linejoin="round" stroke-width="3.000000"
	d="
M217.000000,52.500000 
	C215.639877,55.981903 211.693878,56.480106 209.500000,59.000000 
"/>
<path fill="none" opacity="1.000000" stroke="#000000" stroke-linecap="round" stroke-linejoin="round" stroke-width="3.000000"
	d="
M179.000000,37.000000 
	C176.021362,37.013870 174.789398,39.866096 172.500000,41.000000 
"/>
<path fill="none" opacity="1.000000" stroke="#000000" stroke-linecap="round" stroke-linejoin="round" stroke-width="3.000000"
	d="
M77.000000,61.000000 
	C74.301498,57.597382 70.648056,55.865906 66.500000,55.000000 
"/>
<path fill="none" opacity="1.000000" stroke="#000000" stroke-linecap="round" stroke-linejoin="round" stroke-width="3.000000"
	d="
M192.000000,252.000000 
	C189.526245,249.447510 186.215622,248.568756 183.000000,247.500000 
"/>
<path fill="none" opacity="1.000000" stroke="#000000" stroke-linecap="round" stroke-linejoin="round" stroke-width="3.000000"
	d="
M135.000000,25.500000 
	C135.000000,29.500000 135.000000,33.500000 135.000000,37.500000 
"/>
<path fill="none" opacity="1.000000" stroke="#000000" stroke-linecap="round" stroke-linejoin="round" stroke-width="3.000000"
	d="
M112.500000,41.500000 
	C112.162842,39.666668 110.316795,37.833332 112.497681,36.004742 
	C116.126083,35.414494 117.427940,39.477459 120.500000,40.000000 
"/>
<path fill="none" opacity="1.000000" stroke="#000000" stroke-linecap="round" stroke-linejoin="round" stroke-width="3.000000"
	d="
M34.500000,98.000000 
	C38.436085,99.525078 42.158562,101.690979 46.500000,102.000000 
"/>
<path fill="none" opacity="1.000000" stroke="#000000" stroke-linecap="round" stroke-linejoin="round" stroke-width="3.000000"
	d="
M55.500000,65.500000 
	C55.284550,66.800812 54.232960,67.536980 53.533909,68.524017 
	C51.734444,71.064789 51.682899,73.093506 55.500000,73.500000 
"/>
<path fill="none" opacity="1.000000" stroke="#000000" stroke-linecap="round" stroke-linejoin="round" stroke-width="3.000000"
	d="
M143.000000,25.500000 
	C143.059967,29.522781 142.418015,33.604053 144.000000,37.500000 
"/>
<path fill="none" opacity="1.000000" stroke="#000000" stroke-linecap="round" stroke-linejoin="round" stroke-width="6.000000"
	d="
M37.500000,134.000000 
	C34.261963,131.214172 31.801146,127.003456 26.500000,128.000000 
"/>
<path fill="none" opacity="1.000000" stroke="#000000" stroke-linecap="round" stroke-linejoin="round" stroke-width="2.000000"
	d="
M136.000000,31.500000 
	C138.000000,31.500000 140.000000,31.500000 142.000000,31.500000 
"/>
<path fill="none" opacity="1.000000" stroke="#000000" stroke-linecap="round" stroke-linejoin="round" stroke-width="3.000000"
	d="
M269.000000,17.000000 
	C271.156158,18.421925 270.114685,21.442663 272.000000,23.000000 
"/>
<path fill="none" opacity="1.000000" stroke="#000000" stroke-linecap="round" stroke-linejoin="round" stroke-width="3.000000"
	d="
M247.500000,84.000000 
	C243.881653,85.053154 241.272766,87.849930 238.000000,89.500000 
"/>
<path fill="none" opacity="1.000000" stroke="#000000" stroke-linecap="round" stroke-linejoin="round" stroke-width="3.000000"
	d="
M165.000000,32.000000 
	C166.255615,34.796707 169.131760,36.926140 168.500000,40.500000 
"/>
<path fill="none" opacity="1.000000" stroke="#000000" stroke-linecap="round" stroke-linejoin="round" stroke-width="3.000000"
	d="
M39.500000,101.500000 
	C39.615517,103.617767 38.242153,105.194115 37.500000,107.000000 
"/>
<path fill="none" opacity="1.000000" stroke="#000000" stroke-linecap="round" stroke-linejoin="round" stroke-width="3.000000"
	d="
M216.000000,55.500000 
	C216.602982,58.283707 215.927994,60.907665 215.000000,63.500000 
"/>
<path fill="none" opacity="1.000000" stroke="#000000" stroke-linecap="round" stroke-linejoin="round" stroke-width="3.000000"
	d="
M238.500000,81.000000 
	C239.500000,82.833336 240.500000,84.666664 241.500000,86.500000 
"/>
<path fill="none" opacity="1.000000" stroke="#000000" stroke-linecap="round" stroke-linejoin="round" stroke-width="3.000000"
	d="
M32.500000,106.000000 
	C36.166664,107.333336 39.833332,108.666672 43.500000,110.000000 
"/>
<path fill="none" opacity="1.000000" stroke="#000000" stroke-linecap="round" stroke-linejoin="round" stroke-width="2.000000"
	d="
M268.000000,18.500000 
	C266.702362,19.927378 266.338226,21.634802 266.500000,23.500000 
"/>
<path fill="none" opacity="1.000000" stroke="#000000" stroke-linecap="round" stroke-linejoin="round" stroke-width="3.000000"
	d="
M41.000000,85.500000 
	C40.684696,88.539139 38.722546,90.857780 37.500000,93.500000 
"/>
<path fill="none" opacity="1.000000" stroke="#000000" stroke-linecap="round" stroke-linejoin="round" stroke-width="3.000000"
	d="
M159.500000,250.500000 
	C156.582306,252.148132 153.501434,250.859146 150.500000,251.000000 
"/>
<path fill="none" opacity="1.000000" stroke="#000000" stroke-linecap="round" stroke-linejoin="round" stroke-width="3.000000"
	d="
M263.500000,148.500000 
	C262.104736,151.382004 262.528839,154.466171 262.500000,157.500000 
"/>
<path fill="none" opacity="1.000000" stroke="#000000" stroke-linecap="round" stroke-linejoin="round" stroke-width="3.000000"
	d="
M242.000000,76.500000 
	C240.163788,79.970589 236.303391,80.794167 233.500000,83.000000 
"/>
<path fill="none" opacity="1.000000" stroke="#000000" stroke-linecap="round" stroke-linejoin="round" stroke-width="3.000000"
	d="
M119.500000,248.000000 
	C116.175117,248.795303 113.416695,247.041550 110.500000,246.000000 
"/>
<path fill="none" opacity="1.000000" stroke="#000000" stroke-linecap="round" stroke-linejoin="round" stroke-width="3.000000"
	d="
M254.000000,97.500000 
	C254.237259,100.602539 255.111862,103.480125 257.000000,106.000000 
"/>
<path fill="none" opacity="1.000000" stroke="#000000" stroke-linecap="round" stroke-linejoin="round" stroke-width="3.000000"
	d="
M135.500000,251.000000 
	C132.735306,251.450897 130.022705,251.485062 127.500000,250.000000 
"/>
<path fill="none" opacity="1.000000" stroke="#000000" stroke-linecap="round" stroke-linejoin="round" stroke-width="5.000000"
	d="
M138.500000,51.000000 
	C130.605423,52.378849 122.634689,53.308506 114.990829,55.973701 
	C90.363297,64.560638 72.604332,80.517670 60.844021,103.921623 
	C52.468597,120.589378 50.358875,138.112473 52.241508,155.974548 
	C54.287609,175.387650 62.609268,192.562347 76.014801,206.986252 
	C91.069008,223.184097 109.454613,232.967484 131.492584,236.052948 
	C158.210922,239.793686 181.941422,233.032730 202.981461,216.476440 
	C220.011826,203.075302 230.984573,185.500320 235.340652,164.466995 
	C241.733337,133.599854 234.769409,105.777725 213.495697,82.003845 
	C203.899902,71.280334 192.596252,63.208221 179.058365,57.852486 
	C166.065567,52.712406 152.767776,50.850819 139.000000,51.000000 
"/>
<path fill="none" opacity="1.000000" stroke="#000000" stroke-linecap="round" stroke-linejoin="round" stroke-width="5.000000"
	d="
M139.000000,11.500000 
	C132.848343,12.444423 126.638657,12.872719 120.466293,13.767471 
	C104.547485,16.075079 89.997856,21.899839 76.581512,30.132830 
	C46.866211,48.367744 26.612278,74.115967 16.917294,107.976318 
	C12.537839,123.271851 10.981151,138.827408 12.161186,154.487854 
	C13.628592,173.962051 19.140207,192.478470 29.013060,209.492416 
	C45.486069,237.880432 68.919479,257.994690 99.993431,269.018524 
	C110.221214,272.646942 120.688217,274.778015 131.472702,276.206146 
	C141.931885,277.591248 152.290482,277.289429 162.473145,275.814545 
	C181.231110,273.097595 198.821960,266.782837 215.049789,256.579193 
	C236.846375,242.874039 253.163483,224.375366 264.399658,201.450821 
	C270.701569,188.593430 274.331573,174.852341 276.115143,160.514328 
	C278.947968,137.741745 276.117035,115.732452 267.854279,94.556870 
	C262.716034,81.388779 255.288788,69.340752 246.031479,58.473186 
	C227.791885,37.060940 205.022583,22.848413 177.979965,15.574492 
	C165.430817,12.199027 152.502823,11.202031 139.500000,11.500000 
"/>
<path fill="none" opacity="1.000000" stroke="#000000" stroke-linecap="round" stroke-linejoin="round" stroke-width="2.000000"
	d="
M269.500000,9.500000 
	C266.518738,11.473207 262.259644,11.352798 260.883850,15.965360 
	C259.469452,20.707378 260.922729,25.547352 265.500000,27.999994 
	C269.220398,29.993498 273.920410,28.647953 276.975891,24.482327 
	C279.773041,20.668924 278.616150,15.945752 275.601959,12.899125 
	C273.906860,11.185774 271.516724,11.164213 270.000000,9.500000 
"/>
</svg>